<?xml version="1.0" ?><svg viewBox="0 0 512 512" xmlns="http://www.w3.org/2000/svg"><g id="Ambulance_car_rescue"><path d="M171.5828,184.1367h-11.816a5.4389,5.4389,0,0,0-5.4321,5.4326v17.1592a1.5849,1.5849,0,0,1-1.5835,1.583h-17.16a5.4385,5.4385,0,0,0-5.4317,5.4326v11.8164a5.4377,5.4377,0,0,0,5.4317,5.4317h17.16a1.5858,1.5858,0,0,1,1.5835,1.584v17.1592a5.438,5.438,0,0,0,5.4321,5.4316h11.816a5.438,5.438,0,0,0,5.4321-5.4316V232.5762a1.5858,1.5858,0,0,1,1.5835-1.584h17.1592a5.4381,5.4381,0,0,0,5.4321-5.4317V213.7441a5.4389,5.4389,0,0,0-5.4321-5.4326H178.5984a1.5849,1.5849,0,0,1-1.5835-1.583V189.5693A5.4389,5.4389,0,0,0,171.5828,184.1367Z"/><path d="M367.25,150.3369a6,6,0,0,0,6-6V129.91a6,6,0,1,0-12,0v14.4267A6,6,0,0,0,367.25,150.3369Z"/><path d="M388.7043,153.1807a5.9972,5.9972,0,0,0,7.9883-2.8614l6.3838-13.5107a6,6,0,0,0-10.85-5.127l-6.3838,13.5108A6,6,0,0,0,388.7043,153.1807Z"/><path d="M337.8069,150.3193a6,6,0,1,0,10.85-5.1269l-6.3843-13.5108a6,6,0,1,0-10.85,5.127Z"/><path d="M201.5613,272.6914a64.0415,64.0415,0,0,1-88.6572-89.3193,6,6,0,1,0-9.8819-6.8067A76.041,76.041,0,0,0,208.2957,282.623a6,6,0,1,0-6.7344-9.9316Z"/><path d="M165.6746,143.62A75.6494,75.6494,0,0,0,123.16,156.6094a6,6,0,1,0,6.7178,9.9433,64.0425,64.0425,0,0,1,89.4951,87.9932,6,6,0,1,0,10.0557,6.5488A76.044,76.044,0,0,0,165.6746,143.62Z"/><path d="M371.5613,336.4521A39.6182,39.6182,0,1,0,411.179,376.07,39.6629,39.6629,0,0,0,371.5613,336.4521Zm0,54.0005A14.3821,14.3821,0,1,1,385.9433,376.07,14.3825,14.3825,0,0,1,371.5611,390.4526Z"/><path d="M122.0569,336.4521A39.6182,39.6182,0,1,0,161.6746,376.07,39.6628,39.6628,0,0,0,122.0569,336.4521Zm0,54.0005A14.3821,14.3821,0,1,1,136.4391,376.07,14.3824,14.3824,0,0,1,122.0569,390.4526Z"/><path d="M473.8964,265.0657c-.1111-.0061-.221-.0169-.3337-.0169H473.35a35.272,35.272,0,0,1-32.9791-23.51L430.2751,212.876A40.7989,40.7989,0,0,0,394.67,185.7935a28.5189,28.5189,0,0,0-57.0376-.1021h-18.42V172.4932c0-.0164-.0024-.032-.0025-.0484V125.69a29.411,29.411,0,0,0-29.3779-29.378H38.0779A29.411,29.411,0,0,0,8.7,125.69V359.52a21.89,21.89,0,0,0,21.8647,21.8653h28.59a12.4155,12.4155,0,0,0,12.2993-11.09,50.9322,50.9322,0,0,1,101.2071.0088,12.4233,12.4233,0,0,0,12.2744,11.0938l123.6748.3105h.03a12.3772,12.3772,0,0,0,12.2846-11.1357,50.9324,50.9324,0,0,1,101.2911.2138,12.4051,12.4051,0,0,0,12.292,11.211l46.8315.0732h.1123A21.85,21.85,0,0,0,503.3,360.2168V294.7861A29.9907,29.9907,0,0,0,473.8964,265.0657Zm-166.6842,76.009v28.63l-122.2486-.3068c-.2158,0-.353-.2188-.3774-.4336A62.9321,62.9321,0,0,0,59.53,368.9531c-.0239.2149-.1606.4317-.3745.4317h-28.59A9.8763,9.8763,0,0,1,20.7,359.52V125.69a17.3978,17.3978,0,0,1,17.3779-17.378H289.8318A17.3979,17.3979,0,0,1,307.21,125.69v66.0019c0,.0164.0023.0322.0025.0483Zm42.4545-156.3833a16.5213,16.5213,0,0,1,32.9654,0Zm52.51,80.3574a10.6281,10.6281,0,0,1-10.6152-10.6162V197.6914h.3139a28.7723,28.7723,0,0,1,27.0831,19.1748l10.0932,28.6563a47.0344,47.0344,0,0,0,13.1109,19.5263ZM491.3,318.2148H477.032a6.4975,6.4975,0,0,1-6.49-6.49V277.0488h2.7359A17.9767,17.9767,0,0,1,491.3,294.7861Z"/></g></svg>