<?xml version="1.0" ?><svg viewBox="0 0 512 512" xmlns="http://www.w3.org/2000/svg"><g id="bacteria_disease_cell"><path d="M421.4746,355.7283l-25.0178-4.4726a110.3118,110.3118,0,0,0-5.4006-35.75l23.4575-8.29a9.5,9.5,0,1,0-6.33-17.9141l-24.5869,8.6891a106.6487,106.6487,0,0,0-24.7251-30.7155L381.9941,249.56a9.5,9.5,0,1,0-11.5546-15.082L342.6353,255.78c-.7657-.4437-1.534-.8839-2.313-1.3108a180.2723,180.2723,0,0,1-26.9444-18.0962l25.002-21.8164A9.5,9.5,0,1,0,325.8877,200.24l-26.7183,23.3141a193.8356,193.8356,0,0,1-22.2077-26.7606L300.32,172.5808a9.5,9.5,0,0,0-13.6738-13.1914l-20.1143,20.85a108.2891,108.2891,0,0,0-27.9074-30.8931l10.4065-20.0277a9.5,9.5,0,0,0-16.8594-8.7607L222.4,139.3643a108.9269,108.9269,0,0,0-35.4036-10.6009c-.7388-.09-1.4766-.1635-2.2144-.239l-.5063-22.0046a9.4991,9.4991,0,0,0-9.4932-9.2813c-.0732,0-.1484.001-.2226.0025a9.4993,9.4993,0,0,0-9.2783,9.7163l.4892,21.2624a107.0566,107.0566,0,0,0-32.1489,7.3582l-9.5464-19.9639a9.5,9.5,0,1,0-17.1406,8.1963l9.7343,20.3574a109.6868,109.6868,0,0,0-20.9062,16.938c-1.207,1.2513-2.3669,2.5344-3.5049,3.8317l-16.91-13.507A9.5,9.5,0,0,0,63.49,166.2761l17.5152,13.99A108.2811,108.2811,0,0,0,67.936,212.7446l-24.69-3.7888a9.5,9.5,0,0,0-2.8828,18.78l25.0688,3.8468a107.9506,107.9506,0,0,0,4.5186,36.0344L44.9131,274.071A9.5,9.5,0,1,0,49.6553,292.47l27.2383-7.021q6.3273,14.1968,13.3923,26.9209l-19.84,11.7446a9.5,9.5,0,1,0,9.68,16.35l19.8347-11.7418A315.4579,315.4579,0,0,0,121.09,358.33l-19.759,16.0584a9.5,9.5,0,1,0,11.9824,14.7442l20.1584-16.3833a299.4274,299.4274,0,0,0,22.7266,22.3534L140.335,411.5457a9.5,9.5,0,1,0,13.6738,13.1914l16.8645-17.4809a296.6553,296.6553,0,0,0,31.1125,21.1165l-14.0366,21.6148a9.5,9.5,0,1,0,15.9356,10.3477l14.8188-22.8191A284.3235,284.3235,0,0,0,251.4985,451.62l-6.07,23.8442a9.5,9.5,0,1,0,18.4121,4.6875l6.0388-23.7225a107.8976,107.8976,0,0,0,40.7913-.9381l9.0742,24.6533a9.5,9.5,0,0,0,17.83-6.5625l-8.7246-23.7031A108.2885,108.2885,0,0,0,365.957,424.782c.0205-.0215.0674-.0694.0713-.0733.17-.176.3323-.3571.501-.5341l20.2754,13.2695a9.5,9.5,0,1,0,10.4043-15.8975l-18.76-12.2774a107.1688,107.1688,0,0,0,16.0578-39.0611l23.6236,4.2233a9.5,9.5,0,1,0,3.3437-18.7031Zm-64.0683,60.6338-.0665.0683-.0146.0147a96.4693,96.4693,0,0,1-101.3916,24.0171C211.63,424.7683,130.4922,382.2273,84.8486,273.6467a96.4652,96.4652,0,0,1,88.68-133.7085,98.7448,98.7448,0,0,1,12.0088.7364,95.5692,95.5692,0,0,1,71.7344,47.4609c19.3291,33.4883,45.331,59.3467,77.2832,76.8569a96.363,96.363,0,0,1,22.8516,151.37Z"/><path d="M475.14,118.3025C450.458,59.5891,406.418,36.5276,382.3623,28.0061a58.3943,58.3943,0,0,0-61.376,14.5273l-.0341.0352a58.32,58.32,0,0,0,13.84,91.6221c14.8545,8.14,26.9687,20.2065,36.0078,35.8647a57.8371,57.8371,0,0,0,43.4141,28.7256,59.7142,59.7142,0,0,0,7.2666.4453A58.3748,58.3748,0,0,0,475.14,118.3025Zm-20.4629,54.7412a46.3438,46.3438,0,0,1-73.4844-8.9873c-10.1533-17.5894-23.8242-31.1782-40.6328-40.3892a46.32,46.32,0,0,1-10.9873-72.75l.0341-.0351.0166-.0171a46.4521,46.4521,0,0,1,33.4043-14.1777,45.8817,45.8817,0,0,1,15.3282,2.6308c22.1884,7.8594,62.8281,29.1768,85.7217,83.6348A46.2612,46.2612,0,0,1,454.6768,173.0437Z"/><path d="M378.8728,61.9507a27.1842,27.1842,0,0,0-35.8347,29.7541,26.7925,26.7925,0,0,0,13.7022,19.62c15.4673,8.476,28.0168,20.928,37.3,37.0093a26.8788,26.8788,0,0,0,20.177,13.349,27.78,27.78,0,0,0,3.3794.2072,27.1431,27.1431,0,0,0,24.96-37.6069C425.4641,83.6211,395.32,67.7765,378.8728,61.9507Z"/><path d="M317.7835,304.54a253.5918,253.5918,0,0,1-82.7859-72.9391L219.7788,208.548q-.8221-1.3884-1.636-2.7979a54.4381,54.4381,0,0,0-86.3166-10.54h0a54.391,54.391,0,0,0-11.0676,58.7984C147.4094,317.409,186.854,355.7282,222.73,378.77c0,0,21.8279,12.8119,29.2424,16.1192,7.7058,3.4372,14.8411,6.4418,21.37,8.7544a54.3074,54.3074,0,0,0,57.1631-13.5981l.07-.0722C355.4282,364.2106,349.1751,321.7433,317.7835,304.54Zm-116.51-54.28a21.69,21.69,0,1,1-17.0122-25.525A21.69,21.69,0,0,1,201.2734,250.26Zm91.856,109.5258a24.0991,24.0991,0,0,1-39.2219-12.8165,15.98,15.98,0,1,1,7.6479-25.78,16.1357,16.1357,0,0,1,1.0291,1.33,24.1,24.1,0,0,1,30.5449,37.2669Z"/></g></svg>