<?xml version="1.0" ?><svg viewBox="0 0 512 512" xmlns="http://www.w3.org/2000/svg"><g id="Medical_protective_clothing"><ellipse cx="253.2891" cy="163.9401" rx="7.9504" ry="9.4543"/><ellipse cx="185.1675" cy="163.9401" rx="7.9504" ry="9.4543"/><path d="M265.3206,221.8424a6.0011,6.0011,0,0,0-1.6143-8.331c-23.7681-16.0528-45.3047-15.1582-59.1855-11.584a68.3542,68.3542,0,0,0-24.8516,11.9463,6,6,0,0,0,7.6636,9.2344c1.2744-1.0469,31.643-25.3252,69.6577.3486a5.9982,5.9982,0,0,0,8.33-1.6143Z"/><path d="M384.4041,311.1706a94.1831,94.1831,0,0,0-28.5744,4.4182c-.0911-.0852-.1823-.1675-.2733-.2532-31.2222-31.2168-13.894-70.2158-13.147-71.8486.044-.0938.085-.1895.1236-.2852,1.4267-3.55,34.6137-87.6855,6.083-154.1875q-.0579-.1347-.1221-.2666c-20.0078-40.9971-52.7949-59.7432-76.7769-68.251-24.8115-8.8008-45.1684-8.7314-47.59-8.6943-2.4375-.0859-22.8413-.4609-47.6914,8.1855C152.4182,28.3444,119.6,47.0641,99.6438,88.7907c-.0352.0742-.0688.1484-.1011.2236-28.5307,66.502,4.6558,150.6377,6.0825,154.1875.0386.0957.08.1914.1236.2852.186.4013,18.2309,40.4746-13.148,71.85-5.0439,4.752-10.14,8.92-15.07,12.9512C53.6731,347.8,33.0691,364.6491,33.0691,429.9713c0,19.0684,20.1743,35.6709,58.3423,48.0137,35.0038,11.3191,81.2646,17.6226,130.4745,17.8047.0575.0017.1136.0088.1715.0088.0495,0,.0973-.0061.1465-.0073.6254.0019,1.2492.0073,1.8754.0073,39.335,0,76.8431-3.9253,108.3575-11.1809a94.5128,94.5128,0,1,0,51.9673-173.447ZM222.0574,278.9313c-19.4668,0-53.003-8.1055-58.8819-62.3877a10.28,10.28,0,0,1,5.1123-10.0674c1.732-.9841,3.4874-1.9238,5.2371-2.8276a54.1923,54.1923,0,0,0,9.8938-1.0308,49.2375,49.2375,0,0,0,28.0527-16.74l6.524-7.7783a4.0947,4.0947,0,0,1,6.3935.1494l3.9429,5.1748A49.5869,49.5869,0,0,0,269.47,203.0812c2.1182,1.0708,4.2486,2.1975,6.3572,3.395a10.2792,10.2792,0,0,1,5.1118,10.0674C275.0608,270.8258,241.5247,278.9313,222.0574,278.9313Zm-66.4629-92.1162.0517-44.1152c31.2989-10.45,78.397-17.836,132.878,1.1142v41.07a14.536,14.536,0,0,1-2.29,1.4356,54.3657,54.3657,0,0,1-6.9687,2.914,36.1538,36.1538,0,0,1-8.6594,1.7671c-.1185.003-.236.0122-.3537.0222a37.5531,37.5531,0,0,1-32.3751-14.8713l-3.9424-5.1748a16.0937,16.0937,0,0,0-25.1338-.5889l-6.5234,7.7774a37.1914,37.1914,0,0,1-21.1743,12.6767,41.9674,41.9674,0,0,1-8.6238.8267q-.25-.018-.5007-.0147A31.9117,31.9117,0,0,1,155.5945,186.8151Zm72.4629,296.9614V290.706a73.7178,73.7178,0,0,0,15.4673-2.6712l-.0209.0266s9.1759-1.8492,26.8393-11.7727c.5634-.3116,1.117-.6311,1.6717-.95.6828-.3915,1.3745-.7917,2.0811-1.2069l-.0166.0013a98.8611,98.8611,0,0,0,32.58-30.9287,96.48,96.48,0,0,0,15.2515-52.6816V175.5514a46.8886,46.8886,0,0,0-24.43-41.1782c-.0187-.0105-.0365-.022-.0554-.0325-.0125-.0068-.0242-.0149-.0369-.0217a6.0467,6.0467,0,0,0-.7193-.3257c-.024-.009-.0451-.0227-.0693-.0317-61.8906-22.8272-115.1689-13.2481-148.9653-1.1905a5.9625,5.9625,0,0,0-1.2716.6529c-.0185.01-.0376.0168-.056.0268a46.8922,46.8922,0,0,0-24.5225,41.2334v14.9717a94.6944,94.6944,0,0,0,37.5705,76.6646l-.0028.0039s17.15,14.997,38.926,21.0042l-.0036-.0045a72.0967,72.0967,0,0,0,17.7824,3.3819V483.74c-45.7877-.6328-88.4806-6.6726-120.9541-17.1729-31.33-10.1318-50.0342-23.8115-50.0342-36.5957,0-59.6338,17.6777-74.0908,40.0586-92.3935,5.1118-4.1807,10.397-8.5029,15.77-13.5713.04-.0381.0806-.0772.1206-.1162a73.3716,73.3716,0,0,0,22.0078-56.8955,84.1154,84.1154,0,0,0-6.3081-28.3721c-1.332-3.4023-32.2192-83.917-6.1958-144.7656,14.5239-30.3008,37.8828-51.291,69.4292-62.3867,23.833-8.3829,43.6782-7.6846,43.8735-7.6709v-.001c.1338.0058.2754.0068.4117.0039.1923-.0088,20.0371-.3926,43.8867,8.1533,31.5595,11.31,54.9487,32.1426,69.5215,61.9238,26.0127,60.86-4.8887,141.3809-6.2056,144.7432a84.1269,84.1269,0,0,0-6.3081,28.3721,73.1234,73.1234,0,0,0,18.6991,53.3376,94.4525,94.4525,0,0,0-23.6452,154.6612C292.743,480.5041,261.1528,483.55,228.0574,483.7765Zm156.3467,4.4487a82.5273,82.5273,0,1,1,82.5268-82.5273A82.6206,82.6206,0,0,1,384.4041,488.2252Z"/><path d="M429.8308,370.0192c-8.8257-3.1943-25.0078-10.4092-34.2241-22.835a14.276,14.276,0,0,0-10.9722-5.8135,5.5533,5.5533,0,0,0-.6069-.0351h0l-.0033,0a5.5282,5.5282,0,0,0-.6028.0349,14.2787,14.2787,0,0,0-10.9735,5.8135c-9.2158,12.4258-25.3979,19.6407-34.2226,22.835a14.485,14.485,0,0,0-9.4839,14.8682c5.1347,58.9023,35.6123,77.7675,48.4775,83.1435a17.52,17.52,0,0,0,13.6167,0c12.8657-5.376,43.3438-24.24,48.4785-83.1426A14.4861,14.4861,0,0,0,429.8308,370.0192Zm-78.05,22.66c3.9785,31.1446,17.3781,44.6692,26.7582,50.4151-.0032.0774-.0116.1533-.0116.2314v13.198c-12.1481-6.1257-34.5853-23.9157-38.8286-72.5925a3.4725,3.4725,0,0,1,2.269-3.5684c9.1956-3.3286,25.4964-10.6132,36.56-23.2465v14.1391a5.52,5.52,0,0,0,.0992,1.0264c-7.7147,7.1147-16.9514,11.8557-23.53,14.6338A5.4991,5.4991,0,0,0,351.781,392.6793Zm76.5747-8.747c-4.2436,48.674-26.6792,66.4643-38.8281,72.5908V443.3258c0-.0781-.0084-.1543-.0117-.2314,9.38-5.7459,22.7793-19.2705,26.7578-50.4151a5.4991,5.4991,0,0,0-3.3159-5.7636c-6.578-2.7781-15.8143-7.5191-23.53-14.6341a5.5056,5.5056,0,0,0,.0993-1.0261V357.1171c11.064,12.6328,27.3638,19.9172,36.56,23.2458A3.4734,3.4734,0,0,1,428.3557,383.9323Z"/></g></svg>