<?xml version="1.0" ?><svg viewBox="0 0 512 512" xmlns="http://www.w3.org/2000/svg"><g id="Quarantine_isolation_lockdown"><path d="M368.641,188.1418h63.91a19.4622,19.4622,0,0,0,19.44-19.4409V112.6042A19.45,19.45,0,0,0,433.16,93.1951V75.1873a31.7583,31.7583,0,0,0-63.5166,0v17.977H368.641a19.4621,19.4621,0,0,0-19.4405,19.44v56.0967A19.4623,19.4623,0,0,0,368.641,188.1418ZM406.79,148.8625V159.262a6.1936,6.1936,0,0,1-12.3871,0V148.8625a17.7366,17.7366,0,1,1,12.3871,0ZM381.6433,75.1873a19.7583,19.7583,0,0,1,39.5166,0v17.977H381.6433Z"/><path d="M487.325,477.6663h-58.75v-218.78h41.41a16.6608,16.6608,0,0,0,11.61-28.62l-21.57-20.94a6,6,0,0,0-8.36,8.61l21.57,20.94a4.66,4.66,0,0,1-3.25,8.01h-92.34a6,6,0,0,0,0,12h38.93v191.7H322.269l-24.2267-128.273a203.8987,203.8987,0,0,1-3.3487-45.6084l.76-19.3408a5,5,0,1,1,9.9922.3926l-.76,19.3408a193.8554,193.8554,0,0,0,3.1846,43.3682l3.8208,20.3183a4.98,4.98,0,0,1,.0738,1.1172h20.0868a9.8708,9.8708,0,0,0,9.8047-11.0132l-10.35-88.8256a35.094,35.094,0,0,0-25.3687-29.7247l-30.5241-7.1328a2.4571,2.4571,0,0,1-.7337-4.4575A37.8351,37.8351,0,0,0,292.1386,168.46c0-20.6411-15.7548-37.3735-35.1894-37.3735S221.76,147.8191,221.76,168.46a37.8438,37.8438,0,0,0,17.36,32.2256,2.4584,2.4584,0,0,1-.7623,4.4663l-32.2953,7.1855a35.094,35.094,0,0,0-25.3687,29.7247l-10.35,88.8256a9.8708,9.8708,0,0,0,9.8047,11.0132H200.49a4.9858,4.9858,0,0,1,.0739-1.1172l3.82-20.3183a193.8494,193.8494,0,0,0,3.1845-43.3682l-.76-19.3408a5,5,0,1,1,9.9922-.3926l.76,19.3408a203.8987,203.8987,0,0,1-3.3486,45.6084l-24.4685,128.273H95.915v-191.7h40.76a6,6,0,0,0,0-12H44.325a4.6656,4.6656,0,0,1-3.25-8.01l206.83-200.74a13.2076,13.2076,0,0,1,18.5,0l56.33,54.67a6,6,0,1,0,8.36-8.61l-56.33-54.67a25.1424,25.1424,0,0,0-35.21,0l-206.83,200.74a16.6608,16.6608,0,0,0,11.6,28.62h39.59v218.78H24.675a6,6,0,0,0,0,12h462.65a6,6,0,0,0,0-12ZM250.3781,344.81a5.8288,5.8288,0,0,1,4.9445-4.9726,5.6551,5.6551,0,0,1,6.2641,4.7461l16.4645,106.0029H233.9488Z"/></g></svg>