<?xml version="1.0" ?><svg viewBox="0 0 512 512" xmlns="http://www.w3.org/2000/svg"><g id="Social_distancing"><path d="M225.8659,187.0449H210.3242l5.1623-6.0967a6,6,0,1,0-9.1582-7.7539L192.8024,189.168a6,6,0,0,0,0,7.7539l13.5259,15.9736a6,6,0,1,0,9.1582-7.7539l-5.1623-6.0967h15.5417a6,6,0,0,0,0-12Z"/><path d="M266.3493,187.0449h-17.917a6,6,0,0,0,0,12h17.917a6,6,0,0,0,0-12Z"/><path d="M307.7224,173.1943a6,6,0,0,0-9.1582,7.7539l5.1626,6.0967h-14.649a6,6,0,0,0,0,12h14.649l-5.1626,6.0967a6,6,0,1,0,9.1582,7.7539l13.5263-15.9736a6,6,0,0,0,0-7.7539Z"/><path d="M178.321,203.8389a40.4879,40.4879,0,0,0-29.3687-34.4112l-19.1257-5.3713a43.7754,43.7754,0,0,0,13.8181-32.1472c0-23.6416-18.2675-42.876-40.7212-42.876s-40.7216,19.2344-40.7216,42.876a43.8131,43.8131,0,0,0,13.3772,31.7446l-20.5584,5.7739a40.4885,40.4885,0,0,0-29.3686,34.4112L15.44,291.4834a15.74,15.74,0,0,0,15.6337,17.5615h18.451l-18.5965,98.9a12.6789,12.6789,0,0,0,12.46,15.0215H73.469a12.6135,12.6135,0,0,0,12.5288-10.7334l15.9892-102.94,15.9888,102.94a12.6134,12.6134,0,0,0,12.5288,10.7334h30.08a12.6786,12.6786,0,0,0,12.46-15.0215l-18.596-98.9H172.9a15.7384,15.7384,0,0,0,15.6338-17.5615Zm-104.1191-71.93c0-17.0254,12.8842-30.876,28.7216-30.876s28.7212,13.8506,28.7212,30.876-12.8842,30.8769-28.7212,30.8769S74.2019,148.9346,74.2019,131.9092ZM175.6931,295.792a3.7032,3.7032,0,0,1-2.7935,1.2529H152.1927l-3.8336-20.3887a106.2589,106.2589,0,0,1-1.1719-31.4833l2.9136-26.0293a6,6,0,1,0-11.9258-1.334l-2.9136,26.0293a118.2386,118.2386,0,0,0,1.3047,35.0341l4.77,25.3663.0041.0224,19.9124,105.9014a.6782.6782,0,0,1-.6675.8037h-30.08a.6765.6765,0,0,1-.6714-.5752L113.4279,304.7705a11.5783,11.5783,0,0,0-22.8823,0L74.14,410.3916a.6764.6764,0,0,1-.6713.5752H43.3884a.679.679,0,0,1-.6675-.8047L62.6333,304.2637l.0051-.0281,4.769-25.3626a118.25,118.25,0,0,0,1.3042-35.0341L65.7985,217.81a6,6,0,1,0-11.9257,1.334l2.913,26.0293a106.2719,106.2719,0,0,1-1.1713,31.4833l-3.8338,20.3887H31.0734a3.74,3.74,0,0,1-3.7148-4.1728L37.571,205.2275a28.5327,28.5327,0,0,1,20.6948-24.247l30.7207-8.628c.0764-.0214.1482-.0507.2229-.0749a38.6856,38.6856,0,0,0,26.5835.3015l29.9148,8.4014a28.5316,28.5316,0,0,1,20.6944,24.247l10.2124,87.6446A3.7036,3.7036,0,0,1,175.6931,295.792Z"/><path d="M496.5974,294.6255l-10.5032-90.14A35.6127,35.6127,0,0,0,460.35,174.3208l-31.1519-7.79a1.5751,1.5751,0,0,1-.3464-2.9229c11.5874-6.2685,19.5244-19.0561,19.5244-33.814,0-20.9462-15.9879-37.9267-35.71-37.9267s-35.71,16.9805-35.71,37.9267c0,14.7271,7.9039,27.4917,19.4517,33.7745a1.5761,1.5761,0,0,1-.3658,2.9284l-32.9863,7.824a35.6126,35.6126,0,0,0-25.7441,30.1646l-10.5032,90.14a10.017,10.017,0,0,0,9.95,11.1763h18.6867a4.9823,4.9823,0,0,1,.0736-1.1211l.7695-4.0879a343.5725,343.5725,0,0,0,5.625-77.3555l-.1152-2.8213a5,5,0,1,1,9.9922-.4082l.1152,2.8223c3.4919,65.6821-27.2195,191.998-27.2195,191.998a6.8694,6.8694,0,0,0,6.751,8.1387h30.9367a6.8692,6.8692,0,0,0,6.7879-5.8149l16.8367-108.3985a5.9148,5.9148,0,0,1,5.0177-5.0464,5.7391,5.7391,0,0,1,6.3568,4.8164l16.8723,108.6287a6.8692,6.8692,0,0,0,6.7878,5.8147h30.9368a6.8694,6.8694,0,0,0,6.751-8.1387S446.4013,287.1848,451.76,222.8311l.1142-2.8213a5,5,0,1,1,9.9922.4043l-.1142,2.8222a343.5843,343.5843,0,0,0,5.625,77.3575l.7685,4.0878a4.9811,4.9811,0,0,1,.0734,1.12h18.4291A10.017,10.017,0,0,0,496.5974,294.6255Z"/></g></svg>